<?xml version="1.0" encoding="utf-8"?>
<!-- Generator: Adobe Illustrator 16.0.0, SVG Export Plug-In . SVG Version: 6.00 Build 0)  -->
<!DOCTYPE svg PUBLIC "-//W3C//DTD SVG 1.1//EN" "http://www.w3.org/Graphics/SVG/1.1/DTD/svg11.dtd">
<svg version="1.1" id="Capa_1" xmlns="http://www.w3.org/2000/svg" xmlns:xlink="http://www.w3.org/1999/xlink" x="0px" y="0px"
	 width="66px" height="66px" viewBox="0 0 66 66" enable-background="new 0 0 66 66" xml:space="preserve">
<g id="Capa_2" display="none">
	<g display="inline">
		<g>
			<path fill="#FFFFFF" d="M33.062-0.042c-18.213,0-32.978,14.767-32.978,32.979c0,18.213,14.765,32.979,32.978,32.979
				c18.213,0,32.978-14.766,32.978-32.979C66.04,14.725,51.275-0.042,33.062-0.042z M33.098,63.783
				c-17.022,0-30.822-13.801-30.822-30.824c0-17.022,13.8-30.821,30.822-30.821c17.023,0,30.823,13.798,30.823,30.821
				C63.921,49.982,50.121,63.783,33.098,63.783z M30.524,32.568c-0.009,0.011-0.019,0.021-0.029,0.031
				c0.003-0.244,0.003-0.491,0-0.736c-0.019-2.632-0.039-5.264-0.059-7.896c-0.026-3.971-0.525-7.526,3.943-8.561v-0.002
				c0.944-0.224,1.812-0.329,2.821-0.41c-1.519-0.001-2.753-0.015-4.145,0.014c-6.077,0.13-10.536,1.703-10.536,8.23v24.98
				c0,1.113,0.109,2.304-0.607,3.244c-1.178,1.552-3.659,1.366-5.105,1.451c-0.516,0.03-0.864,0.198-0.864,0.198s1.918,0,2.879,0
				c3.399,0,7.594,0.078,10.138-2.791c1.715-1.938,1.638-3.973,1.633-6.336C30.593,40.182,30.548,36.371,30.524,32.568z
				 M46.712,28.791c-1.993-1.381-4.922-2.143-7.304-2.495c3.031-1.003,6.415-3.8,5.182-7.34c-0.732-2.101-2.723-3.177-4.805-3.664
				c-1.646-0.382-3.174-0.231-4.83,0.09c1.286,0.887,2.27,2.377,2.453,3.951c0.322,2.186,0.019,4.524-1.993,5.773
				c-1.744,1.083-3.18,1.248-4.891,1.248v0.375h2.143c1.999,0,4.247,1.013,5.562,2.531c2.326,2.685,2.523,7.708,0.73,10.731
				c-1.709,2.882-5.677,3.467-8.312,3.782v0.105h10.099c3.867,0,7.665-2.049,8.891-5.857C50.756,34.521,49.777,30.915,46.712,28.791
				z"/>
		</g>
	</g>
</g>
<g>
	<g>
		<path fill-rule="evenodd" clip-rule="evenodd" fill="#FFFFFF" d="M34.322,2.269C17.012,2.269,2.98,16.3,2.98,33.609
			c0,17.31,14.031,31.342,31.342,31.342c17.309,0,31.341-14.032,31.341-31.342C65.663,16.3,51.631,2.269,34.322,2.269z
			 M30.506,46.987c-1.946,2.194-5.155,2.133-7.755,2.133c-0.733,0-2.202,0-2.202,0s0.267-0.127,0.662-0.15
			c1.106-0.064,3.003,0.076,3.904-1.109c0.547-0.72,0.465-1.629,0.465-2.48V26.277c0-4.992,3.41-6.194,8.056-6.293
			c1.068-0.023,2.01-0.012,3.173-0.011c-0.774,0.062-1.436,0.142-2.16,0.312v0.002c-3.416,0.792-3.035,3.51-3.015,6.547
			c0.016,2.012,0.031,4.025,0.047,6.039v0.563c0.006-0.008,0.014-0.017,0.022-0.023c0.018,2.907,0.051,5.82,0.051,8.729
			C31.757,43.95,31.818,45.507,30.506,46.987z M46.317,37.582c-0.935,2.913-3.84,4.479-6.801,4.479h-7.723v-0.08
			c2.017-0.241,5.053-0.688,6.358-2.892c1.37-2.312,1.219-6.156-0.559-8.208c-1.005-1.161-2.726-1.935-4.252-1.935H31.7V28.66
			c1.309,0,2.408-0.126,3.742-0.953c1.539-0.956,1.771-2.744,1.522-4.416c-0.14-1.203-0.891-2.343-1.875-3.021
			c1.267-0.246,2.435-0.362,3.692-0.068c1.595,0.371,3.115,1.194,3.675,2.802c0.945,2.706-1.643,4.844-3.961,5.612
			c1.822,0.27,4.06,0.853,5.587,1.909C46.425,32.148,47.173,34.904,46.317,37.582z"/>
	</g>
</g>
</svg>
