<?xml version="1.0" encoding="utf-8"?>
<!-- Generator: Adobe Illustrator 17.1.0, SVG Export Plug-In . SVG Version: 6.00 Build 0)  -->
<!DOCTYPE svg PUBLIC "-//W3C//DTD SVG 1.1//EN" "http://www.w3.org/Graphics/SVG/1.1/DTD/svg11.dtd">
<svg version="1.1" id="Layer_1" xmlns="http://www.w3.org/2000/svg" xmlns:xlink="http://www.w3.org/1999/xlink" x="0px" y="0px"
	 viewBox="0 0 400 400" enable-background="new 0 0 400 400" xml:space="preserve">
<polygon fill="#A6DEF3" points="214.8,344.7 213.5,336 229,337.2 "/>
<polygon fill="#47C2EF" points="198.5,357.3 179,355.7 188.7,347.9 "/>
<polygon fill="#36BDEE" points="209.5,357.3 214.8,344.7 188.7,347.9 198.5,357.3 "/>
<polygon fill="#72D0F4" points="194.2,330.7 184.7,337.2 214.8,344.7 "/>
<polygon fill="#54C6F1" points="188.7,347.9 184.7,337.2 214.8,344.7 "/>
<path fill="none" d="M249,349.9"/>
<polygon fill="#40BDEC" points="260,339.1 272,320.2 279.9,321.3 "/>
<polygon fill="#3FBEEC" points="247,346.7 259.4,325.1 266.1,329.5 "/>
<polygon fill="#37BBEB" points="260,339.1 266.1,329.5 247,346.7 "/>
<polygon fill="#25B6EB" points="254.2,299.4 258.5,287.7 269.7,288 "/>
<polygon fill="#1DB3EA" points="266,299.4 254.2,299.4 269.7,288 "/>
<polygon fill="#2FB8EB" points="266,302.7 276.5,299.4 269.7,288 266,299.4 "/>
<polygon fill="#67CCF0" points="257.7,310.2 266,302.7 276.5,299.4 272,320.2 "/>
<polygon fill="#0BABE7" points="279.5,299.4 276.5,299.4 272,320.2 291.5,322.9 281.2,302.7 "/>
<polygon fill="#72CCF0" points="297,287.8 281.2,302.7 284.8,309.8 "/>
<polygon fill="#3BBBEB" points="313,272.9 325.2,275.9 352,228.9 317.2,237.2 "/>
<path fill="#BCE7F9" d="M309.2,128.7c-0.2,1.5,0,36.2,0,37.3c1.4-0.5,27.5-13.7,27.5-13.7L309.2,128.7z"/>
<polygon fill="#1989B9" points="324.5,133 309.2,128.7 336.8,152.2 "/>
<polygon fill="#1989B9" points="309.2,165.9 347.7,191.4 336.8,152.2 "/>
<polygon fill="#BCE7F9" points="309,202.9 309.2,165.9 347.7,191.4 "/>
<polygon fill="#67CCF0" points="352,228.9 347.7,191.4 309,202.9 "/>
<polygon fill="#1989B9" points="317.2,237.2 309,202.9 352,228.9 "/>
<polygon fill="#A6E0F7" points="118.5,228.9 105.2,202.9 165.7,219.2 "/>
<polygon fill="#EDFCFF" points="112.2,182.7 105.2,202.9 136.5,211.3 "/>
<polygon fill="#A6E0F7" points="187.2,197.9 165.7,219.2 136.5,211.3 "/>
<polygon fill="#A6E0F7" points="139.7,179.9 112.2,182.7 136.5,211.3 "/>
<polygon fill="#D9F1FC" points="187.2,197.9 136.5,211.3 139.7,179.9 "/>
<polygon fill="#E6F7FC" points="211.3,188.1 187.2,197.9 180.5,182.7 "/>
<polygon fill="#EDFCFF" points="196.7,159.7 180.5,182.7 211.3,188.1 "/>
<polygon fill="#EDFCFF" points="139.7,179.9 164.5,168.9 180.5,182.7 187.2,197.9 "/>
<polygon fill="#D9F1FC" points="112.2,182.7 112.9,181.8 126,165.2 139.7,179.9 "/>
<polygon fill="#A6E0F7" points="144.7,152.2 126,165.2 139.7,179.9 "/>
<polygon fill="#A6E0F7" points="164.5,168.9 196.7,159.7 180.5,182.7 "/>
<polygon fill="#C1E7F9" points="144.7,152.2 164.5,168.9 139.7,179.9 "/>
<polygon fill="#A6E0F7" points="129.1,163 133.1,122.5 144.7,152.2 "/>
<polygon fill="#C1E7F9" points="176,142.7 164.5,168.9 196.7,159.7 "/>
<polygon fill="#D1ECFA" points="155.4,134.3 144.7,152.2 164.5,168.9 176,142.7 "/>
<polygon fill="#D1ECFA" points="146.7,103 133.1,122.5 144.7,152.2 155.4,134.3 161.9,123.4 "/>
<polygon fill="#EDFCFF" points="155.4,134.3 161.9,123.4 176,142.7 "/>
<path fill="#C1E7F9" d="M140,91.6c0.3-0.3,16.1-8.1,16.1-8.1l-6.9,13L140,91.6z"/>
<polygon fill="#C1E7F9" points="133.1,122.5 135.4,99.9 146.7,103 "/>
<polygon fill="#A6E0F7" points="140,91.6 135.4,99.9 146.7,103 "/>
<polygon fill="#D1ECFA" points="149.2,96.4 140,91.6 146.7,103 "/>
<polygon fill="#D9F1FC" points="98.2,228.9 102.5,235.2 105.2,227.9 106.5,224.7 "/>
<polygon fill="#D1ECFA" points="118.5,228.9 113.5,219.2 105.2,227.9 "/>
<polygon fill="#B6E4F8" points="95,238.4 98.2,228.9 102.5,235.2 "/>
<polygon fill="#DAF1FC" points="102.4,241 102.5,235.2 95,238.4 89.3,241.7 "/>
<polygon fill="#CCECFA" points="84.8,247.6 98.6,255 94.7,241 "/>
<polygon fill="#EDFCFF" points="79.2,243.4 89.3,241.7 94.7,241 84.8,247.6 "/>
<path fill="#EDFCFF" d="M72.5,258.7c-0.3-1.5,1-10.6,1-10.6l11.3-0.5L72.5,258.7z"/>
<polygon fill="#A6E0F7" points="79.2,243.4 73.5,248 84.8,247.6 "/>
<polygon fill="#75D0F2" points="73.5,270.7 72.5,258.7 84.8,247.6 82.1,253.3 "/>
<polygon fill="#DAF1FC" points="89.2,269.2 74.7,284.9 73.5,270.7 82.1,253.3 "/>
<polygon fill="#EDFCFF" points="89.2,307.9 74.7,284.9 89.2,269.2 "/>
<polygon fill="#87D6F5" points="118.5,278.7 112.3,263.5 107.7,275.9 "/>
<polygon fill="#BCE7F9" points="89.2,269.2 107.7,275.9 89.2,307.9 "/>
<polygon fill="#8AD5F3" points="118.5,278.7 115.9,302.9 107.7,275.9 "/>
<polygon fill="#D9F1FC" points="89.2,307.9 115.9,302.9 107.7,275.9 "/>
<polygon fill="#EDFCFF" points="121,332.7 115.9,302.9 89.2,307.9 "/>
<polygon fill="#87D6F5" points="135.5,307.9 115.9,302.9 118.5,278.7 127.7,284.9 "/>
<polygon fill="#A6E0F7" points="135.4,323.9 136.9,314.9 115.9,302.9 "/>
<polygon fill="#A6E0F7" points="121,332.7 144.7,344.9 149.2,337.8 "/>
<polygon fill="#8ED7F3" points="135.4,323.9 121,332.7 115.9,302.9 "/>
<polygon fill="#8ED7F3" points="136.9,314.9 135.5,307.9 115.9,302.9 "/>
<polygon fill="#CCECFA" points="146.6,325 136.9,314.9 153.7,306.4 "/>
<polygon fill="#A6E0F7" points="157.4,336.1 146.6,325 153.7,306.4 158,314.2 "/>
<polygon fill="#65CCF3" points="165.7,330.9 157.4,336.1 158,314.2 170.7,313.3 "/>
<polygon fill="#A6E0F7" points="130.1,291.9 153.7,306.4 136.9,314.9 "/>
<polygon fill="#75D0F2" points="157.4,336.1 174,344.7 165.7,330.9 "/>
<polygon fill="#D1ECFA" points="139.7,55.9 183.7,44.2 180.5,55.9 "/>
<polygon fill="#9AD8ED" points="213.2,42.7 219.5,55.9 180.5,55.9 183.7,44.2 "/>
<polygon fill="#85C4DF" points="252.5,59.7 219.5,55.9 213.2,42.7 232.9,46.7 "/>
<polygon fill="#C9E9F9" points="280.2,64.9 252.5,59.7 232.9,46.7 "/>
<polygon fill="#A6DFF1" points="110.7,72.2 139.7,55.9 152.1,55.9 "/>
<polygon fill="#A6DFF2" points="128.2,85.1 110.7,72.2 152.1,55.9 "/>
<polygon fill="#98D1E5" points="84.1,96.6 110.7,72.2 128.2,85.1 "/>
<polygon fill="#9AD8ED" points="173.5,81.3 152.1,55.9 128.2,85.1 156.2,83.5 "/>
<polygon fill="#ABD9ED" points="180.5,55.9 152.1,55.9 173.5,81.3 "/>
<polygon fill="#ACDFF2" points="226.2,80.9 173.5,81.3 180.5,55.9 "/>
<polygon fill="#C4E7F7" points="219.5,55.9 180.5,55.9 226.2,80.9 "/>
<polygon fill="#A8DEF1" points="252.5,59.7 271,84.9 226.2,80.9 "/>
<polygon fill="#BBE4F5" points="219.5,55.9 226.2,80.9 252.5,59.7 "/>
<path fill="#AFE2F3" d="M271,84.9c0,0,31,6,30.2,5.7s-26.9-26.7-26.9-26.7L271,84.9z"/>
<polygon fill="#A5DDF0" points="252.5,59.7 271,84.9 274.4,63.8 "/>
<path fill="#CBECF7" d="M301.2,90.5c0,0,15.8,6.8,16,6.3c0.3-0.5-37-32-37-32l-5.9-1.1L301.2,90.5z"/>
<polygon fill="#9FDCF0" points="346,144.2 317.2,96.9 301.2,90.5 "/>
<path fill="#98D1E5" d="M324.5,133c0.7,1.1,21.5,11.2,21.5,11.2l-27.3-32.6L324.5,133z"/>
<polygon fill="#AADFF2" points="309.2,128.7 301.2,90.5 318.7,111.6 "/>
<polygon fill="#48A1C5" points="324.5,133 318.7,111.6 309.2,128.7 "/>
<polygon fill="#1989B9" points="352,176.2 343.6,161.5 343.5,147.4 349.2,159.7 "/>
<polygon fill="#48A1C5" points="336.8,152.2 343.5,147.4 324.5,133 "/>
<polygon fill="#94D2E8" points="346,144.2 343.5,147.4 324.5,133 "/>
<path fill="#91D0E6" d="M336.8,152.2c0,0,3.5,12.3,3.5,12.6c0.3-0.3,0.8-0.9,1.6-1.6c0.9-0.8,1.7-1.6,1.7-1.6l0-14.1L336.8,152.2z"
	/>
<polygon fill="#48A1C5" points="347.7,191.4 352,176.2 343.6,161.5 340.3,164.8 "/>
<polygon fill="#6DB7D3" points="346,144.2 343.5,147.4 351.4,159.2 "/>
<polygon fill="#A6D8EA" points="349.2,159.7 343.5,147.4 351.4,159.2 "/>
<polygon fill="#99D4E9" points="352,175.8 354.8,176.2 351.4,159.2 349.2,159.7 "/>
<polygon fill="#96DAF0" points="347.7,191.4 356.7,197.9 354.8,176.2 352,176.2 "/>
<polygon fill="#1989B9" points="353.9,229.7 352,228.9 347.7,191.4 356.7,197.9 "/>
<polygon fill="#1989B9" points="325.2,275.9 335.5,279.3 346.5,256.8 "/>
<polygon fill="#60B9DC" points="338.6,252.4 346.5,256.8 325.2,275.9 "/>
<polygon fill="#1989B9" points="353.9,229.7 346.5,256.8 338.6,252.4 352,228.9 "/>
<polygon fill="#AAE0F7" points="297,287.8 300.7,281 291.5,287.5 "/>
<polygon fill="#A1DAEF" points="325.2,275.9 319.9,301.6 335.5,279.3 "/>
<polygon fill="#0C8ABF" points="300.7,281 319.9,301.6 325.2,275.9 313,272.9 "/>
<polygon fill="#54C0EA" points="284.8,309.8 319.9,301.6 300.7,281 "/>
<polygon fill="#1989B9" points="291.5,322.9 294.3,325.9 319.9,301.6 284.8,309.8 "/>
<polygon fill="#77D0F1" points="260,339.1 276.8,337.3 294.3,325.9 291.5,322.9 279.9,321.3 "/>
<polygon fill="#88D6F3" points="247,346.7 252.3,348.6 276.8,337.3 260,339.1 "/>
<polygon fill="#7DD3F1" points="209.5,357.3 232.7,354 214.8,344.7 "/>
<polygon fill="#C9EDF9" points="252.3,348.6 232.7,354 247,346.7 "/>
<polygon fill="#88D7F1" points="247,346.7 214.8,344.7 232.7,354 "/>
<polygon fill="#8AD5F3" points="248.2,315.8 272,320.2 229,337.2 "/>
<polygon fill="#65C9EF" points="272,320.2 266.1,329.5 259.4,325.1 "/>
<polygon fill="#ACE0F5" points="214.8,344.7 247,346.7 259.4,325.1 229,337.2 "/>
<polygon fill="#8BD7F0" points="174,344.7 185.7,350.3 188.7,347.9 "/>
<polygon fill="#6FCFF2" points="158.9,352.2 179,355.7 185.7,350.3 "/>
<polygon fill="#A6E0F7" points="157.4,336.1 158.9,352.2 185.7,350.3 "/>
<polygon fill="#8ED7F3" points="165.7,330.9 174,344.7 188.7,347.9 184.7,337.2 "/>
<polygon fill="#C8E9FA" points="170.7,313.3 194.2,330.7 184.7,337.2 165.7,330.9 "/>
<polygon fill="#A6E0F7" points="135.4,323.9 121,332.7 149.2,337.8 "/>
<polygon fill="#6FCEF1" points="136.9,314.9 135.4,323.9 149.2,337.8 157.4,336.1 "/>
<polygon fill="#5BC8EF" points="144.7,344.9 158.9,352.2 157.4,336.1 149.2,337.8 "/>
<polygon fill="#B5E6F8" points="120.5,335.9 158.9,352.2 121,332.7 "/>
<polygon fill="#74D0F1" points="87.6,309.7 120.5,335.9 121,332.7 89.2,307.9 "/>
<polygon fill="#EDFCFF" points="59.9,270.7 72.5,292.2 74.7,284.9 "/>
<polygon fill="#C9E9F9" points="87.6,309.7 72.5,292.6 74.7,284.9 89.2,307.9 "/>
<polygon fill="#D5F0FC" points="73.5,270.7 74.7,284.9 60.2,271.1 "/>
<polygon fill="#9ADBF0" points="53,255 60.2,271.1 72.5,258.7 "/>
<polygon fill="#EDFCFF" points="73.5,270.7 60.2,271.1 72.5,258.7 "/>
<polygon fill="#A5DCF4" points="94.7,262.1 84.8,247.6 82.1,253.3 89.2,269.2 "/>
<polygon fill="#B0E1F7" points="107.7,275.9 89.2,269.2 94.7,262.1 "/>
<polygon fill="#8ED5F2" points="94.7,262.1 98.6,255 84.8,247.6 84.8,247.6 "/>
<polygon fill="#CCECFA" points="107.7,275.9 112.3,263.5 98.6,255 94.7,262.1 "/>
<polygon fill="#8BD6F3" points="201.5,335.9 213.5,336 214.8,344.7 "/>
<polygon fill="#C9E9F9" points="217.6,313.7 229,337.2 248.2,315.8 "/>
<polygon fill="#D2EDFB" points="210.4,335.9 217.6,313.7 229,337.2 "/>
<polygon fill="#C1E7F9" points="182.7,313.7 210.4,335.9 217.6,313.7 "/>
<polygon fill="#D3EDFB" points="185.7,324.6 182.7,313.7 210.4,335.9 201.5,335.9 "/>
<polygon fill="#EDFCFF" points="170.7,313.3 182.7,313.7 185.7,324.6 "/>
<polygon fill="#87D6F5" points="131.4,279.3 121.8,280.9 127.7,284.9 130.1,291.9 141.9,299.2 "/>
<polygon fill="#D5F0FC" points="182.7,313.7 175.1,275.9 158.9,294.8 "/>
<polygon fill="#DAF1FC" points="131.4,279.3 175.1,275.9 158.9,294.8 "/>
<polygon fill="#C6EBFA" points="153.7,306.4 158.9,294.8 170.7,313.3 158,314.2 "/>
<polygon fill="#BCE7F9" points="141.9,299.2 153.7,306.4 158.9,294.8 131.4,279.3 "/>
<polygon fill="#D7F0FC" points="182.7,313.7 158.9,294.8 170.7,313.3 "/>
<polygon fill="#A6D8EA" points="286.1,126.7 271,84.9 309.2,128.7 "/>
<polyline fill="#C5E8F8" points="301.2,90.5 309.2,128.7 271,84.9 "/>
<polygon fill="#9FDCF0" points="290.3,176.6 309.2,128.7 286.1,126.7 "/>
<polygon fill="#D8EFFB" points="309.2,165.9 290.3,176.6 309.2,128.7 "/>
<polygon fill="#1076A3" points="309,202.9 288.7,219 309.2,214.4 "/>
<polygon fill="#1181B2" points="317.2,237.2 309.2,214.4 309,202.9 "/>
<polygon fill="#A3D9EF" points="290.3,176.6 288.7,219 309,202.9 309.2,165.9 "/>
<polygon fill="#C5E9F9" points="231.5,225.3 233,173.9 290.3,176.6 "/>
<polygon fill="#EDFCFF" points="260,224.7 231.5,225.3 290.3,176.6 "/>
<polygon fill="#D7F0FB" points="288.7,219 260,224.7 290.3,176.6 "/>
<polygon fill="#B9E7F9" points="226.2,275.9 264,283.7 249,257.4 "/>
<polygon fill="#CEEDFB" points="231.5,225.3 226.2,275.9 249,257.4 260,224.7 "/>
<polygon fill="#D2EDFA" points="233,173.9 286.1,126.7 290.3,176.6 "/>
<polygon fill="#EDFCFF" points="231.5,122.4 286.1,126.7 233,173.9 "/>
<polygon fill="#D9F0FC" points="226.2,80.9 231.5,122.4 271,84.9 "/>
<polygon fill="#D2EDFA" points="286.1,126.7 231.5,122.4 271,84.9 "/>
<polygon fill="#C2E7F7" points="114.5,126.7 133.1,122.5 128.2,85.1 "/>
<polygon fill="#D6F0FC" points="109.5,176.6 112.2,182.7 126,165.2 "/>
<polygon fill="#C0E4F4" points="110.7,145.7 129.1,163 133.1,122.5 "/>
<polygon fill="#D2EDFA" points="114.5,126.7 110.7,145.7 133.1,122.5 "/>
<polygon fill="#D9F1FC" points="109.5,176.6 110.7,145.7 129.1,163 "/>
<polygon fill="#D7F0FB" points="105.2,202.9 102.4,192.4 112.2,182.7 "/>
<polygon fill="#C1E7F9" points="118.5,228.9 126.3,233.7 165.7,219.2 "/>
<polygon fill="#B6E4F8" points="98.6,255 122.1,251.9 112.3,263.5 "/>
<polygon fill="#C1E8F9" points="102.4,241 122.1,251.9 98.6,255 94.7,241 "/>
<polygon fill="#D6F0FC" points="126.3,233.7 102.4,241 102.5,235.2 105.2,227.9 118.5,228.9 "/>
<polygon fill="#CFEEFB" points="122.1,251.9 126.3,233.7 102.4,241 "/>
<polygon fill="#CCECFA" points="122.1,251.9 131.4,279.3 121.8,280.9 118.5,278.7 112.3,263.5 "/>
<polygon fill="#D7F0FB" points="147.4,255 175.1,275.9 168.2,226.2 152.1,222.7 "/>
<polygon fill="#EDFCFF" points="131.4,279.3 147.4,255 175.1,275.9 "/>
<polygon fill="#D9F1FC" points="122.1,251.9 147.4,255 131.4,279.3 "/>
<polygon fill="#96D9EE" points="57.7,245.7 72.5,258.7 53,255 "/>
<polygon fill="#A0DEF1" points="46,224.7 53,255 57.7,245.7 "/>
<polygon fill="#84D1EB" points="73.5,248 57.7,245.7 72.5,258.7 "/>
<polygon fill="#98D1E5" points="46,224.7 79.2,243.4 57.7,245.7 "/>
<polygon fill="#D1ECFA" points="74.7,215.7 98.2,228.9 95,238.4 89.3,241.7 "/>
<polygon fill="#EDFCFF" points="46,224.7 51.9,222.7 74.7,215.7 89.3,241.7 79.2,243.4 "/>
<polygon fill="#BDE5F7" points="102.4,192.4 74.7,215.7 98.2,228.9 106.5,224.7 105.2,227.9 113.5,219.2 105.2,202.9 "/>
<polygon fill="#95D9EF" points="43.3,199.3 46,224.7 51.9,222.7 "/>
<polygon fill="#EDFCFF" points="48.7,192.8 74.7,215.7 51.9,222.7 "/>
<polygon fill="#92D8EE" points="43.3,199.3 51.9,222.7 48.7,192.8 "/>
<polygon fill="#ADE0F3" points="72.6,184.4 74.7,215.7 48.7,192.8 "/>
<polygon fill="#DAF1FC" points="109.5,176.6 102.4,192.4 112.2,182.7 "/>
<polygon fill="#D1ECFA" points="72.6,184.4 102.4,192.4 74.7,215.7 "/>
<polygon fill="#CEEBFA" points="109.5,176.6 72.6,184.4 102.4,192.4 "/>
<polygon fill="#9ADCF0" points="43.3,199.3 47.7,162.2 55.8,190.3 48.7,192.8 "/>
<polygon fill="#A4DEF1" points="72.6,184.4 73.5,152.6 55.8,190.3 "/>
<polygon fill="#D6EFFB" points="89.2,158.2 109.5,176.6 110.7,145.7 "/>
<polygon fill="#D3EDFA" points="72.6,184.4 109.5,176.6 89.2,158.2 "/>
<polygon fill="#C5E8F8" points="73.5,152.6 89.2,158.2 72.6,184.4 "/>
<polygon fill="#98D1E5" points="47.7,162.2 55.8,190.3 73.5,152.6 "/>
<polygon fill="#A4DFF1" points="59.5,131.9 47.7,162.2 73.5,152.6 "/>
<polygon fill="#EDFCFF" points="78.6,134 89.2,158.2 110.7,145.7 "/>
<polygon fill="#9FDCF0" points="114.5,126.7 78.6,134 110.7,145.7 "/>
<polygon fill="#A6E0F7" points="126.3,233.7 122.1,251.9 147.4,255 152.1,222.7 "/>
<polygon fill="#DAF1FC" points="168.2,226.2 165.7,219.2 152.1,222.7 "/>
<polygon fill="#AFE3F7" points="197.7,224 168.2,226.2 165.7,219.2 187.2,197.9 "/>
<polygon fill="#DBF1FC" points="202.2,295.5 182.7,313.7 217.6,313.7 "/>
<polygon fill="#D9F0FC" points="238.7,298.7 217.6,313.7 248.2,315.8 "/>
<polygon fill="#D9F1FC" points="226.2,275.9 202.2,295.5 217.6,313.7 "/>
<polygon fill="#EDFCFF" points="238.7,298.7 226.2,275.9 217.6,313.7 "/>
<polygon fill="#8BD6F4" points="266,299.4 266,302.7 257.7,310.2 254.2,299.4 "/>
<polygon fill="#55C4EF" points="248.2,315.8 257.7,310.2 272,320.2 "/>
<polygon fill="#CDECFA" points="238.7,298.7 254.2,299.4 257.7,310.2 248.2,315.8 "/>
<polygon fill="#D9F1FC" points="226.2,275.9 238.7,298.7 254.2,299.4 258.5,287.7 "/>
<polygon fill="#CDEDFB" points="264,283.7 258.5,287.7 226.2,275.9 "/>
<polygon fill="#89D6F4" points="269.7,288 272.4,284.5 264,283.7 258.5,287.7 "/>
<polygon fill="#8BD5F3" points="297,287.8 281.2,302.7 279.5,299.4 276.5,299.4 269.7,288 272.4,284.5 "/>
<polygon fill="#EDFCFF" points="175.1,275.9 182.7,313.7 226.2,275.9 "/>
<polygon fill="#EDFCFF" points="200.7,249.3 226.2,275.9 231.5,225.3 "/>
<polygon fill="#CEEDFB" points="197.7,224 231.5,225.3 200.7,249.3 "/>
<polygon fill="#DEF2FC" points="168.2,226.2 200.7,249.3 197.7,224 "/>
<polygon fill="#D7F0FB" points="175.1,275.9 200.7,249.3 226.2,275.9 "/>
<polygon fill="#E6F7FC" points="168.2,226.2 200.7,249.3 175.1,275.9 "/>
<polygon fill="#D1ECFA" points="187.2,197.9 196.7,199.3 211.3,188.1 "/>
<polygon fill="#B5E4F8" points="219.2,202.4 196.7,199.3 211.3,188.1 "/>
<polygon fill="#E6F5FD" points="197.7,224 231.5,225.3 219.2,202.4 "/>
<polygon fill="#EDFCFF" points="187.2,197.9 197.7,224 219.2,202.4 "/>
<polygon fill="#DAF1FB" points="233,173.9 202.4,171.8 231.5,225.3 "/>
<polygon fill="#EDFCFF" points="209.5,148.2 202.4,171.8 233,173.9 "/>
<polygon fill="#DDF2FC" points="209.5,148.2 196.7,159.7 202.4,171.8 "/>
<polygon fill="#D2EDFA" points="231.5,122.4 209.5,148.2 233,173.9 "/>
<polygon fill="#EDFCFF" points="193.5,131.9 176,142.7 196.7,159.7 "/>
<polygon fill="#DAF1FB" points="209.5,148.2 196.7,159.7 193.5,131.9 "/>
<polygon fill="#DCF2FC" points="231.5,122.4 193.5,131.9 209.5,148.2 "/>
<polygon fill="#C5E9F9" points="199.9,103.9 193.5,131.9 231.5,122.4 "/>
<polygon fill="#EDFCFF" points="226.2,80.9 199.9,103.9 231.5,122.4 "/>
<polygon fill="#D2EDFA" points="173.5,81.3 199.9,103.9 226.2,80.9 "/>
<polygon fill="#D0ECF9" points="172.2,111.2 176,142.7 193.5,131.9 "/>
<polygon fill="#DBF2FC" points="199.9,103.9 172.2,111.2 193.5,131.9 "/>
<polygon fill="#D8EFFB" points="173.5,81.3 172.2,111.2 199.9,103.9 "/>
<polygon fill="#C6E5F5" points="133.1,122.5 135.4,99.9 128.2,85.1 "/>
<polygon fill="#B7E3F4" points="100.5,113 114.5,126.7 128.2,85.1 "/>
<polygon fill="#A6D8EA" points="84.1,96.6 100.5,113 128.2,85.1 "/>
<polygon fill="#D2EDFA" points="78.6,134 92.1,104.4 114.5,126.7 "/>
<polygon fill="#B2E2F4" points="73.5,152.6 89.2,158.2 78.6,134 "/>
<polygon fill="#98D1E5" points="59.5,131.9 78.6,134 73.5,152.6 "/>
<polygon fill="#9FDCF0" points="84.1,96.6 78.6,134 92.1,104.4 "/>
<polygon fill="#C4EAF6" points="59.5,131.9 84.1,96.6 78.6,134 "/>
<polygon fill="#C1E7F9" points="161.9,123.4 172.2,111.2 176,142.7 "/>
<polygon fill="#BDE1F3" points="128.2,85.1 135.4,99.9 140,91.6 "/>
<polygon fill="#A6E0F7" points="156.2,83.5 156.2,83.5 140,91.6 128.2,85.1 "/>
<polygon fill="#D3ECFA" points="172.2,111.2 149.2,96.4 173.5,81.3 "/>
<polygon fill="#EDFCFF" points="146.7,103 146.7,103 149.2,96.4 172.2,111.2 161.9,123.4 "/>
<polygon fill="#BFE0F1" points="156.2,83.5 173.5,81.3 149.2,96.4 "/>
<polygon fill="#EDFCFF" points="57.7,245.7 73.5,248 79.2,243.4 "/>
<polygon fill="#BCE7F9" points="275.1,268.1 264,283.7 291.5,287.5 "/>
<polygon fill="#BCE7F9" points="313,272.9 291.5,287.5 275.1,268.1 "/>
<polygon fill="#67CCF0" points="292.5,241 275.1,268.1 313,272.9 "/>
<polygon fill="#BCE7F9" points="317.2,237.2 313,272.9 292.5,241 "/>
<polygon fill="#67CCF0" points="249,257.4 264,283.7 275.1,268.1 "/>
<polygon fill="#D1ECFA" points="272.4,238.9 260,224.7 288.7,219 "/>
<polygon fill="#BCE7F9" points="249,257.4 272.4,238.9 260,224.7 "/>
<polygon fill="#D1ECFA" points="275.1,268.1 272.4,238.9 249,257.4 "/>
<polygon fill="#BCE7F9" points="288.7,219 292.5,241 275.1,268.1 272.4,238.9 "/>
<polygon fill="#67CCF0" points="317.2,237.2 292.5,241 288.7,219 309.2,214.4 "/>
</svg>
